<svg width="46" height="36" viewBox="0 0 46 36" fill="none" xmlns="http://www.w3.org/2000/svg">
<path d="M38.1425 21.3579L28.9242 19.7566C28.4166 19.669 28.0378 20.1948 28.2796 20.6409L28.9081 21.796C29.1257 22.2023 28.8356 22.6883 28.3682 22.6883H17.6593C17.1919 22.6883 16.9018 22.1943 17.1194 21.796L18.7632 18.8086C18.9646 18.4422 18.7471 17.9961 18.3281 17.9244L10.7214 16.602C10.4635 16.5542 10.2057 16.6816 10.0768 16.9127L0.0768915 35.1078C-0.14873 35.5141 0.149412 36 0.616771 36H8.97283C9.19845 36 9.40796 35.8805 9.51271 35.6813L12.6875 29.8898C12.7923 29.6907 13.0018 29.5712 13.2274 29.5712H32.7759C33.0015 29.5712 33.211 29.6907 33.3158 29.8898L36.4906 35.6813C36.5954 35.8805 36.8049 36 37.0305 36H45.3865C45.8539 36 46.144 35.5061 45.9264 35.1078L38.5615 21.6686C38.4729 21.5092 38.3117 21.3897 38.1264 21.3579H38.1425Z" fill="white"/>
<path d="M37.1927 18.689L27.9744 17.0878C27.7891 17.0559 27.6279 16.9444 27.5393 16.7771L23.5748 9.5357C23.3411 9.11349 22.7287 9.11349 22.495 9.5357L19.3847 15.1759C19.2558 15.4069 18.9979 15.5264 18.7401 15.4866L11.1334 14.1641C10.7224 14.0924 10.5049 13.6463 10.6983 13.2799L17.8215 0.318652C17.9262 0.12746 18.1357 0 18.3613 0H27.7005C27.9261 0 28.1356 0.119494 28.2403 0.318652L37.8212 17.7968C38.0629 18.2429 37.6842 18.7687 37.1766 18.6811L37.1927 18.689Z" fill="white"/>
</svg>
